<svg width="170" height="42" viewBox="0 0 170 42" fill="none" xmlns="http://www.w3.org/2000/svg">
<path d="M22.1162 41.7283H13.4798C8.15953 41.7283 3.42463 38.3554 1.68483 33.3284L0.69612 30.4713C-2.10889 22.3646 3.91261 13.9102 12.4911 13.9102L22.115 41.7283H22.1162Z" fill="black"/>
<path d="M16.4414 0C26.9312 0 36.2677 6.64971 39.6975 16.5623L48.4034 41.7273H30.8779L16.4414 0Z" fill="black"/>
<path d="M42.7305 0H60.256L74.6925 41.7273H57.167L42.7305 0Z" fill="black"/>
<path d="M69.0195 0H86.545L100.982 41.7273H83.4561L69.0195 0Z" fill="black"/>
<path d="M95.3086 0H112.834L127.271 41.7273H109.745L95.3086 0Z" fill="black"/>
<path d="M121.594 0H139.119L153.556 41.7273C143.066 41.7273 133.729 35.0776 130.3 25.165L121.594 0Z" fill="black"/>
<path d="M157.509 27.8182L147.883 0H156.52C161.841 0 166.576 3.37296 168.315 8.39993L169.304 11.2571C172.109 19.3638 166.088 27.8182 157.509 27.8182Z" fill="black"/>
<path d="M83.457 41.7284H74.6943L71.8359 33.4688C73.5584 38.4134 78.2202 41.7284 83.4582 41.7284H83.457Z" fill="black"/>
<path d="M57.168 41.7284H48.4052L45.5469 33.4688C47.2693 38.4134 51.9312 41.7284 57.1691 41.7284H57.168Z" fill="black"/>
<path d="M109.742 41.7284H100.979L98.1211 33.4688C99.8435 38.4134 104.505 41.7284 109.743 41.7284H109.742Z" fill="black"/>
<path d="M136.031 41.7284H127.268L124.41 33.4688C126.133 38.4134 130.794 41.7284 136.032 41.7284H136.031Z" fill="black"/>
<path d="M162.32 41.7284H153.558L150.699 33.4688C152.422 38.4134 157.084 41.7284 162.321 41.7284H162.32Z" fill="black"/>
<path d="M19.3008 8.25968C18.4407 5.79082 16.8481 3.7288 14.8174 2.28225C12.7797 0.832227 10.3016 0 7.67969 0H16.4424L19.3008 8.25968Z" fill="black"/>
<path d="M45.5898 8.25968C44.7298 5.79082 43.1372 3.7288 41.1065 2.28225C39.0688 0.832227 36.5895 0 33.9688 0H42.7315L45.5898 8.25968Z" fill="black"/>
<path d="M124.454 8.25968C123.594 5.79082 122.002 3.7288 119.971 2.28225C117.933 0.832227 115.454 0 112.832 0H121.595L124.453 8.25968H124.454Z" fill="black"/>
<path d="M71.8789 8.25968C71.0189 5.79082 69.4263 3.7288 67.3955 2.28225C65.3578 0.832227 62.8785 0 60.2578 0H69.0206L71.8789 8.25968Z" fill="black"/>
<path d="M98.1652 8.25968C97.3052 5.79082 95.7126 3.7288 93.6818 2.28225C91.6441 0.832227 89.1648 0 86.543 0H95.3057L98.1641 8.25968H98.1652Z" fill="black"/>
</svg>
